<svg preserveAspectRatio="none" overflow="visible" style="display: block;" width="24" height="24" viewBox="0 0 24 24" fill="none" xmlns="http://www.w3.org/2000/svg">
<g id="Frame">
<path id="Vector" d="M17.5 21C15.567 21 14 19.433 14 17.5V3H21V17.5C21 19.433 19.433 21 17.5 21Z" stroke="#1D2C38" stroke-width="1.5"/>
<path id="Vector_2" d="M22 3H13" stroke="#1D2C38" stroke-width="1.5" stroke-linecap="round"/>
<path id="Vector_3" d="M17 7H14" stroke="#1D2C38" stroke-width="1.5" stroke-linecap="round"/>
<path id="Vector_4" d="M10 16.875C10 19.9126 8 21 6 21C4 21 2 19.9126 2 16.875C2 13.8374 6 10 6 10C6 10 10 13.8374 10 16.875Z" stroke="#1D2C38" stroke-width="1.5" stroke-linejoin="round"/>
<path id="Vector_5" d="M14 12C15.083 11.1336 16.2974 9.87843 17.771 10.7626C19.0014 11.5009 20.0342 10.7244 21 10" stroke="#1D2C38" stroke-width="1.5" stroke-linecap="round"/>
</g>
</svg>
